<?xml version="1.0" encoding="UTF-8"?><svg id="Layer_1" xmlns="http://www.w3.org/2000/svg" viewBox="0 0 700 700"><path d="m408.33,606.65c-122.22,0-221.67-99.45-221.67-221.67s99.44-221.67,221.67-221.67,221.67,99.44,221.67,221.67-99.45,221.67-221.67,221.67h0Zm0-420c-109.36,0-198.33,88.97-198.33,198.33s88.97,198.33,198.33,198.33,198.33-88.97,198.33-198.33-88.95-198.33-198.33-198.33h0Z"/><path d="m140,606.65c-38.59,0-70-31.41-70-70s31.41-70,70-70,70,31.41,70,70-31.41,70-70,70Zm0-116.67c-25.74,0-46.67,20.91-46.67,46.67s20.93,46.67,46.67,46.67,46.67-20.93,46.67-46.67-20.93-46.67-46.67-46.67Z"/><path d="m408.33,384.98c-6.42,0-11.67-5.25-11.67-11.67v-233.33c0-6.44,5.25-11.67,11.67-11.67s11.67,5.23,11.67,11.67v233.33c0,6.42-5.25,11.67-11.67,11.67Z"/><path d="m140,548.31c-2.78,0-5.55-.98-7.77-2.96-4.81-4.32-5.2-11.67-.91-16.47,24.57-27.46,18.57-71.77,13.28-110.88-2.17-16.01-4.22-31.12-4.22-44.68,0-123.11,72.31-254.59,274.77-256.64l19.93-19.93c4.53-4.53,11.95-4.53,16.5,0,4.53,4.55,4.53,11.97,0,16.5l-23.33,23.33c-2.17,2.17-5.13,3.41-8.24,3.41-160.49,0-256.29,87.2-256.29,233.33,0,11.97,1.94,26.32,3.99,41.54,5.69,41.91,12.74,94.06-18.99,129.57-2.31,2.57-5.51,3.9-8.7,3.9h0Z"/><path d="m210,209.98h-46.67c-6.44,0-11.67-5.25-11.67-11.67s5.23-11.67,11.67-11.67h46.67c6.44,0,11.67,5.23,11.67,11.67s-5.23,11.67-11.67,11.67Z"/></svg>