<?xml version="1.0" encoding="UTF-8"?><svg id="Layer_1" xmlns="http://www.w3.org/2000/svg" viewBox="0 0 700 700"><path d="m201.28,630c-35.26,0-59.88-23.03-61.25-57.31-.56-13.95,3.2-28.19,10.31-39.04,8.52-13,21.12-20.46,35.49-21.02,13.32-.56,26.74,4.36,35.77,13.04,7.12,6.84,11.04,15.56,11.04,24.55,0,6.42-5.23,11.67-11.67,11.67s-11.67-5.25-11.67-11.67c0-3.34-2.1-6.04-3.88-7.72-4.46-4.32-11.32-6.65-18.67-6.51-6.81.3-12.48,3.83-16.9,10.52-4.5,6.88-6.88,16.1-6.54,25.32.89,21.89,15.05,34.91,37.92,34.91,24.1,0,35.46-9.59,48.6-20.67,14.61-12.34,31.17-26.34,64.19-26.34,6.44,0,11.67,5.23,11.67,11.67s-5.23,11.67-11.67,11.67c-24.48,0-35.91,9.64-49.14,20.84-14.51,12.2-30.99,26.11-63.63,26.11h.01Z"/><path d="m498.78,630c-32.64,0-49.09-13.91-63.65-26.2-13.23-11.18-24.69-20.84-49.14-20.84-6.44,0-11.67-5.25-11.67-11.67s5.23-11.67,11.67-11.67c33.02,0,49.58,14,64.19,26.34,13.14,11.1,24.48,20.67,48.6,20.67,22.84,0,37.06-13.07,37.92-34.91.4-9.24-2.01-18.43-6.54-25.32-4.39-6.7-10.08-10.24-16.9-10.52-6.86-.07-14.19,2.24-18.67,6.51-1.75,1.68-3.88,4.41-3.88,7.72,0,6.44-5.25,11.67-11.67,11.67s-11.67-5.23-11.67-11.67c0-9.01,3.92-17.71,11.04-24.55,9.03-8.68,22.38-13.58,35.75-13.02,14.38.56,26.95,8.05,35.49,21.02,7.12,10.85,10.9,25.08,10.31,39.04-1.35,34.35-25.95,57.37-61.2,57.37h.01Z"/><path d="m280.03,490c-38.59,0-70-31.41-70-70s31.41-70,70-70,70,31.41,70,70-31.41,70-70,70Zm0-116.67c-25.74,0-46.67,20.91-46.67,46.67s20.93,46.67,46.67,46.67,46.67-20.91,46.67-46.67-20.93-46.67-46.67-46.67Z"/><path d="m350.03,326.67c-57.05,0-141.98-18.08-193.74-57.82-5.11-3.92-6.07-11.25-2.15-16.35,3.9-5.06,11.25-6.07,16.35-2.15,39.97,30.68,115.48,52.99,179.5,52.99s139.58-22.29,179.55-52.99c5.13-3.92,12.44-2.94,16.35,2.15,3.92,5.11,2.96,12.44-2.15,16.35-51.71,39.74-136.66,57.82-193.74,57.82h.02Z"/><path d="m466.7,291.67c-4.32,0-8.4-2.36-10.45-6.44-22.73-45.45-6.23-128.29,16.85-191.89h-246.14c23.06,63.6,39.57,146.42,16.85,191.89-2.89,5.79-9.89,8.1-15.66,5.23-5.76-2.89-8.1-9.89-5.23-15.66,19.76-39.53,1.56-125.56-23.73-188.79-1.45-3.59-.98-7.68,1.17-10.88,2.17-3.2,5.79-5.13,9.66-5.13h280c3.88,0,7.46,1.94,9.66,5.13,2.17,3.2,2.59,7.3,1.17,10.88-25.29,63.21-43.49,149.24-23.73,188.79,2.87,5.76.51,12.76-5.25,15.66-1.63.82-3.38,1.21-5.16,1.21h-.01Z"/><path d="m175.03,478.33c-6.44,0-11.67-5.25-11.67-11.67v-58.33c0-6.42,5.23-11.67,11.67-11.67h35c6.44,0,11.67,5.25,11.67,11.67s-5.23,11.67-11.67,11.67h-23.33v46.67c0,6.42-5.23,11.67-11.67,11.67h0Z"/></svg>