<?xml version="1.0" encoding="UTF-8"?><svg id="Layer_1" xmlns="http://www.w3.org/2000/svg" viewBox="0 0 700 700"><path d="m350,513.33c-109.85,0-189.58-31.59-189.58-75.11,0-6.44,5.23-11.67,11.67-11.67s11.67,5.23,11.67,11.67c0,21.16,59.19,51.78,166.25,51.78s166.25-30.64,166.25-51.78c0-6.44,5.25-11.67,11.67-11.67s11.67,5.23,11.67,11.67c0,43.52-79.73,75.11-189.58,75.11h-.01Z"/><path d="m350,256.67c-113.12,0-233.33-32.71-233.33-93.33s120.21-93.33,233.33-93.33,233.33,32.72,233.33,93.33-120.21,93.33-233.33,93.33Zm0-163.34c-123.76,0-210,36.89-210,70s86.24,70,210,70,210-36.89,210-70-86.24-70-210-70Z"/><path d="m350,560c-113.4,0-186.67-27.49-186.67-70,0-57.05-11.71-109.81-23.06-160.81-11.6-52.22-23.61-106.24-23.61-165.85,0-6.44,5.23-11.67,11.67-11.67s11.67,5.23,11.67,11.67c0,57.05,11.71,109.81,23.06,160.81,11.6,52.24,23.61,106.26,23.61,165.85,0,19.39,50.68,46.67,163.33,46.67s163.33-27.28,163.33-46.67c0-59.62,12.04-113.63,23.61-165.85,11.34-51.01,23.05-103.74,23.05-160.81,0-6.44,5.25-11.67,11.67-11.67s11.67,5.23,11.67,11.67c0,59.62-12.04,113.63-23.61,165.85-11.34,51.01-23.05,103.74-23.05,160.81,0,42.51-73.29,70-186.67,70h0Z"/><path d="m350,630c-157.01,0-280-61.51-280-140,0-38.96,48.86-79.54,90.7-102.46,5.67-3.1,12.74-1,15.84,4.64,3.1,5.65,1.03,12.71-4.62,15.84-46.27,25.32-78.59,59.06-78.59,81.97,0,63.23,117.55,116.67,256.67,116.67s256.67-53.43,256.67-116.67c0-22.91-32.32-56.63-78.59-81.97-5.62-3.12-7.72-10.22-4.62-15.84,3.1-5.65,10.2-7.75,15.87-4.64,41.81,22.94,90.67,63.54,90.67,102.46,0,78.49-122.99,140-280,140h0Z"/></svg>