<?xml version="1.0" encoding="UTF-8"?><svg id="Layer_1" xmlns="http://www.w3.org/2000/svg" viewBox="0 0 700 700"><path d="m618.33,501.69h-244.28c-21.89,0-50.82-13.11-78.8-25.76-22.73-10.27-46.22-20.91-59.01-20.91h-2.92v35c0,6.42-5.23,11.67-11.67,11.67H81.66c-6.44,0-11.67-5.25-11.67-11.67v-46.67c0-6.44,5.23-11.67,11.67-11.67h536.67c6.44,0,11.67,5.23,11.67,11.67v46.67c0,6.42-5.23,11.67-11.67,11.67h0Zm-312.66-46.67c24.34,11.01,51.73,23.33,68.46,23.33h232.54v-23.33h-301Zm-212.34,23.33h116.67v-23.33h-116.67v23.33Z"/><path d="m166.65,455.02c-6.44,0-11.67-5.25-11.67-11.67,0-40.41-32.88-73.31-73.29-73.31-6.44,0-11.67-5.23-11.67-11.67s5.23-11.67,11.67-11.67c53.27,0,96.62,43.33,96.62,96.65,0,6.42-5.25,11.67-11.67,11.67Z"/><path d="m618.33,466.69c-6.42,0-11.67-5.25-11.67-11.67,0-57.56-26.78-93.33-70-93.33h-17.5c-51.54,0-99.98-20-136.55-56.35l-82.41-81.99c-69.98,22.61-127.19,25.81-184.66,10.48-5.27-1.38-11.01-.23-15.33,3.1-4.34,3.31-6.88,8.54-6.88,14v204.1c0,6.42-5.23,11.67-11.67,11.67s-11.67-5.25-11.67-11.67v-204.12c0-12.65,6-24.8,16.03-32.53,10.06-7.7,23.36-10.34,35.53-7.12,54.62,14.6,109.53,10.81,178.04-12.34,4.18-1.4,8.8-.35,11.95,2.78l87.5,87.06c32.13,31.94,74.76,49.56,120.07,49.56h17.55c43.07,0,93.33,30.57,93.33,116.67,0,6.46-5.23,11.71-11.67,11.71h0Z"/><path d="m327.65,446.27c-6.44,0-11.67-5.25-11.67-11.67,0-86.29,82.86-109.08,126.68-109.08,6.44,0,11.67,5.23,11.67,11.67s-5.23,11.67-11.67,11.67c-4.22,0-103.34.98-103.34,85.75,0,6.42-5.23,11.67-11.67,11.67h0Z"/></svg>