<?xml version="1.0" encoding="UTF-8"?><svg id="Layer_1" xmlns="http://www.w3.org/2000/svg" viewBox="0 0 700 700"><path d="m347.04,621.25c-.84,0-1.7-.09-2.54-.28-70.02-15.63-156.64-54.65-189.14-85.26-2.45-2.33-3.78-5.58-3.66-8.94,1.77-46.99,18.43-146.42,69.4-225.91-26.2-73.96-5.41-149.19,16.29-214.13,1.59-4.76,6.04-7.96,11.06-7.96h52.03c3.57,0,6.95,1.66,9.17,4.46,2.21,2.82,3.01,6.49,2.17,9.96-.21.91-20.91,90.18,43.77,159.9,1.98,2.15,3.1,4.99,3.1,7.93v348.58c0,3.55-1.61,6.88-4.39,9.1-2.05,1.66-4.62,2.54-7.26,2.54h0Zm-171.75-99.08c27.51,22.98,95.08,55.74,160.09,72.59v-329.26c-54.53-61.46-52.62-133.21-48.74-163.43h-29.75c-24.2,74.29-35,136.45-11.92,196,1.38,3.55.93,7.54-1.17,10.69-48.67,73.04-65.78,168.33-68.51,213.41h0Z"/><path d="m347.04,621.25c-2.64,0-5.2-.89-7.3-2.54-2.78-2.24-4.39-5.55-4.39-9.12v-348.58c0-2.94,1.12-5.79,3.1-7.93,65.57-70.68,55.62-160.37,55.49-161.26-.4-3.31.63-6.65,2.87-9.15,2.24-2.5,5.39-3.92,8.73-3.92h52.01c5.02,0,9.47,3.22,11.06,7.96,21.54,64.38,39.76,139.91,13.28,214.15,58.52,91.44,65.61,203.96,66.43,225.96.12,3.38-1.21,6.62-3.66,8.94-30.94,29.14-122.12,69-195.14,85.24-.77.16-1.63.26-2.47.26h0Zm11.67-355.73v329.26c62.84-16.17,136.8-48.39,166.11-72.64-3.15-58.87-21.91-147.91-65.54-213.38-2.1-3.15-2.54-7.14-1.19-10.69,25.67-66.19,10.62-135.73-8.94-196h-31.2c.61,29.22-4.11,101.62-59.24,163.45h0Z"/><path d="m358.7,312.08h-23.33c-6.44,0-11.67-5.23-11.67-11.67s5.23-11.67,11.67-11.67h23.33c6.42,0,11.67,5.23,11.67,11.67s-5.25,11.67-11.67,11.67Z"/><path d="m358.7,358.75h-23.33c-6.44,0-11.67-5.23-11.67-11.67s5.23-11.67,11.67-11.67h23.33c6.42,0,11.67,5.23,11.67,11.67s-5.25,11.67-11.67,11.67Z"/><path d="m358.7,405.42h-23.33c-6.44,0-11.67-5.25-11.67-11.67s5.23-11.67,11.67-11.67h23.33c6.42,0,11.67,5.25,11.67,11.67s-5.25,11.67-11.67,11.67Z"/><path d="m358.7,452.08h-23.33c-6.44,0-11.67-5.25-11.67-11.67s5.23-11.67,11.67-11.67h23.33c6.42,0,11.67,5.25,11.67,11.67s-5.25,11.67-11.67,11.67Z"/><path d="m288.7,475.42h-70c-6.44,0-11.67-5.25-11.67-11.67s5.23-11.67,11.67-11.67h70c6.44,0,11.67,5.25,11.67,11.67s-5.23,11.67-11.67,11.67Z"/><path d="m475.37,475.42h-70c-6.42,0-11.67-5.25-11.67-11.67s5.25-11.67,11.67-11.67h70c6.42,0,11.67,5.25,11.67,11.67s-5.25,11.67-11.67,11.67Z"/></svg>